<?xml version="1.0" standalone="no"?>
<!DOCTYPE svg PUBLIC "-//W3C//DTD SVG 20010904//EN"
 "http://www.w3.org/TR/2001/REC-SVG-20010904/DTD/svg10.dtd">
<svg version="1.0" xmlns="http://www.w3.org/2000/svg"
 width="828.000000pt" height="692.000000pt" viewBox="0 0 828.000000 692.000000"
 preserveAspectRatio="xMidYMid meet">
<metadata>
Created by potrace 1.16, written by Peter Selinger 2001-2019
</metadata>
<g transform="translate(0.000000,692.000000) scale(0.100000,-0.100000)"
fill="#000000" stroke="none">
<path d="M0 5825 c0 -987 2 -1095 16 -1095 8 0 25 5 37 12 38 20 194 34 286
26 182 -17 220 -10 519 99 39 14 47 14 85 0 23 -9 59 -18 80 -21 21 -4 46 -10
55 -15 33 -17 148 -29 237 -25 103 4 121 8 179 34 22 10 53 21 67 24 14 3 38
17 53 31 15 14 35 25 44 25 9 0 38 7 64 14 38 12 67 13 150 5 57 -6 115 -17
130 -24 30 -15 74 -25 122 -30 17 -2 52 -7 78 -10 70 -11 203 12 273 47 33 16
62 32 65 36 29 41 120 55 200 32 19 -5 55 -10 80 -10 25 0 68 -6 95 -13 61
-15 239 -14 316 2 31 7 87 28 124 46 37 19 73 35 80 35 8 0 36 11 63 25 55 27
97 28 217 5 80 -16 344 -24 388 -12 33 9 48 5 86 -24 2 -2 -11 -34 -29 -71
-29 -61 -31 -71 -20 -98 23 -57 19 -68 -30 -81 -25 -7 -87 -20 -138 -28 -77
-13 -103 -22 -151 -54 -32 -21 -72 -44 -89 -51 -18 -8 -32 -17 -32 -21 0 -4
-12 -11 -27 -15 -14 -3 -44 -22 -67 -41 -50 -43 -67 -47 -148 -40 -352 31
-510 29 -628 -8 -57 -17 -147 -42 -180 -50 -14 -3 -43 -22 -65 -43 -23 -21
-65 -58 -95 -83 -29 -25 -67 -61 -84 -80 -17 -19 -51 -55 -76 -80 -39 -38 -90
-131 -90 -162 0 -5 -9 -21 -19 -36 -24 -33 -47 -125 -62 -240 -6 -48 -13 -105
-16 -128 -4 -33 1 -51 26 -96 17 -30 31 -61 31 -69 0 -39 107 -179 137 -179
18 0 63 -60 63 -82 0 -41 23 -72 58 -79 29 -6 33 -4 39 19 6 24 -1 56 -25 127
-35 99 -36 114 -15 143 11 15 31 28 44 30 41 5 182 53 217 73 18 10 39 19 47
19 7 0 27 16 45 36 17 20 57 50 87 66 31 17 63 36 70 44 8 8 20 14 26 14 6 0
46 16 89 37 76 35 79 36 98 18 47 -43 13 -114 -63 -131 -89 -19 -119 -64 -42
-64 24 0 63 -7 85 -16 40 -16 44 -16 138 12 53 15 104 33 112 39 15 12 88 35
109 35 6 0 30 -17 54 -39 45 -41 97 -61 163 -61 55 0 69 -18 51 -62 -8 -18
-21 -39 -30 -47 -9 -7 -14 -17 -11 -22 6 -10 -136 -154 -201 -205 -75 -59
-326 -119 -449 -107 -51 4 -65 2 -84 -14 -22 -17 -23 -22 -13 -61 18 -66 46
-76 211 -70 131 5 140 7 221 42 46 21 93 40 104 43 11 3 34 11 50 18 17 8 42
17 58 20 15 4 39 21 53 39 14 17 53 55 87 84 69 58 102 100 146 183 35 65 64
78 130 54 22 -7 61 -17 88 -20 51 -8 93 -37 93 -66 0 -10 12 -27 26 -38 34
-27 103 -27 204 -1 99 26 165 26 221 -1 24 -12 46 -25 49 -28 10 -14 109 -39
130 -34 13 4 29 -2 43 -14 12 -11 32 -26 45 -32 21 -11 32 -55 14 -63 -4 -1
-27 -27 -51 -55 -24 -29 -53 -56 -65 -59 -11 -4 -36 -17 -55 -30 -19 -13 -38
-21 -42 -18 -5 3 -26 -7 -48 -21 -27 -16 -55 -25 -83 -25 -23 0 -49 -6 -57
-13 -31 -26 -157 -68 -226 -76 -73 -9 -199 -39 -276 -66 -24 -9 -64 -20 -89
-26 -24 -5 -71 -28 -105 -50 -63 -43 -211 -189 -220 -219 -3 -9 -17 -23 -30
-30 -14 -7 -25 -17 -25 -21 0 -4 -23 -10 -51 -14 -41 -6 -52 -12 -60 -32 -5
-14 -5 -31 0 -41 5 -9 14 -44 21 -77 25 -123 20 -120 154 -130 55 -4 81 -3 86
5 13 21 -12 66 -42 78 -15 5 -28 17 -28 26 0 9 -4 16 -10 16 -23 0 -6 17 40
38 27 13 59 38 71 55 31 46 81 97 94 97 6 0 25 13 42 29 17 15 39 31 48 35 10
3 15 12 12 20 -12 31 60 57 99 36 13 -7 29 -29 35 -49 20 -63 34 -71 113 -71
137 1 269 47 335 116 40 41 46 44 70 35 69 -28 201 -13 291 34 l33 17 -7 -35
c-4 -24 -2 -38 7 -46 19 -15 31 1 46 63 10 41 9 52 -4 72 -11 18 -14 38 -9 81
9 96 11 102 36 96 22 -4 22 -4 4 11 -14 12 -16 19 -8 29 6 7 9 22 6 34 -3 12
1 27 11 37 11 11 15 26 12 44 -3 15 -1 34 3 43 5 9 11 33 13 53 2 20 9 42 15
48 21 21 14 47 -14 54 -19 5 -22 9 -13 15 17 10 6 21 -24 24 -13 2 -32 7 -43
13 -10 6 -34 16 -51 22 -18 7 -45 23 -60 37 -16 13 -37 31 -49 39 -20 14 -20
17 -8 65 17 66 24 74 95 105 46 21 59 32 64 54 3 15 19 39 34 54 36 34 71 32
89 -6 14 -29 26 -35 37 -17 4 5 18 15 32 20 22 8 30 5 54 -23 16 -17 29 -38
29 -45 0 -8 17 -40 38 -72 32 -51 41 -58 67 -57 16 1 37 -6 47 -16 22 -22 54
-23 62 -2 3 8 11 12 16 9 20 -12 119 16 214 61 19 9 38 14 43 11 11 -7 73 11
333 93 36 12 83 26 105 31 22 6 65 19 95 29 175 56 201 59 166 22 -9 -11 -42
-25 -74 -31 -31 -7 -66 -17 -77 -22 -11 -5 -45 -15 -75 -23 -30 -8 -66 -19
-80 -24 -24 -10 -170 -55 -235 -72 -49 -13 -138 -41 -160 -50 -26 -10 -238
-73 -286 -84 -119 -27 -277 -165 -216 -189 8 -3 29 15 50 40 51 63 89 81 287
139 30 9 63 20 72 25 10 5 23 9 30 9 14 0 220 63 278 85 19 7 58 19 85 25 28
7 59 16 70 20 11 4 43 14 70 20 28 7 78 23 112 36 34 13 70 24 81 24 11 0 33
7 48 15 16 8 37 15 47 15 9 0 25 4 35 9 9 5 46 17 82 27 36 9 110 31 165 49
55 18 127 40 160 50 33 9 82 25 109 36 27 10 60 19 74 19 14 0 33 6 41 14 9 7
45 21 81 31 36 9 81 21 100 26 19 6 51 14 70 18 19 5 91 28 160 51 93 32 139
43 180 42 59 -1 110 -16 122 -35 24 -37 -6 -199 -57 -305 -40 -85 -41 -89 -18
-114 15 -17 15 -23 -7 -91 -13 -39 -27 -77 -32 -83 -16 -22 -29 -162 -23 -249
9 -123 -14 -197 -75 -239 -23 -15 -46 -40 -51 -55 -12 -32 -66 -83 -74 -70 -4
5 -4 12 -2 17 7 12 -27 105 -41 110 -7 2 -28 -12 -48 -32 -20 -20 -38 -36 -41
-36 -5 0 -94 -40 -178 -81 -22 -10 -48 -19 -57 -19 -9 0 -23 -7 -31 -15 -15
-14 -89 -38 -170 -55 -21 -4 -44 -13 -50 -19 -6 -6 -21 -11 -34 -11 -12 0 -46
-8 -75 -19 -29 -10 -93 -31 -143 -45 -49 -15 -142 -45 -205 -68 -235 -83 -342
-117 -355 -112 -15 6 -46 74 -69 154 -35 118 -107 152 -256 119 -25 -5 -81
-15 -125 -22 -80 -13 -173 -51 -182 -74 -3 -7 -11 -13 -19 -13 -8 0 -14 -7
-14 -15 0 -8 -6 -15 -12 -15 -9 0 -8 -4 2 -10 13 -8 12 -10 -2 -10 -10 0 -18
-5 -18 -11 0 -6 -7 -8 -17 -4 -13 4 -15 3 -8 -4 7 -7 22 -8 45 -1 18 5 36 7
39 5 2 -3 -1 -5 -7 -5 -7 0 -12 -7 -12 -15 0 -8 4 -15 10 -15 19 0 -7 -45 -36
-61 -25 -14 -30 -24 -38 -79 -7 -52 -6 -64 7 -71 8 -5 36 -29 61 -54 35 -33
46 -52 46 -74 0 -20 11 -43 29 -63 l29 -33 74 39 c40 22 75 43 78 47 10 13 78
48 84 42 16 -16 3 -56 -28 -88 -19 -19 -39 -35 -44 -35 -6 0 -16 -17 -23 -37
-14 -44 -48 -103 -59 -103 -11 0 -28 -48 -35 -105 -4 -27 -15 -62 -26 -76 -10
-15 -19 -31 -19 -37 0 -19 -90 -92 -113 -92 -13 0 -27 -4 -32 -9 -20 -20 -118
-20 -159 0 -54 26 -92 24 -119 -4 -12 -13 -30 -26 -39 -30 -9 -3 -33 -31 -52
-61 -20 -31 -40 -56 -46 -56 -5 0 -10 -15 -10 -33 0 -18 -4 -37 -10 -43 -5 -5
-23 -50 -40 -99 -17 -50 -40 -109 -50 -132 -11 -24 -20 -48 -20 -53 0 -6 -13
-28 -29 -48 -16 -20 -32 -48 -36 -62 -5 -14 -16 -31 -25 -37 -10 -7 -21 -29
-25 -50 -4 -20 -15 -48 -26 -61 -10 -14 -19 -32 -19 -41 0 -23 -76 -170 -110
-213 -17 -20 -30 -41 -30 -46 0 -14 -53 -58 -88 -72 -27 -10 -35 -11 -42 -1
-4 7 -11 12 -16 11 -31 -7 -134 14 -172 35 -24 14 -51 25 -59 25 -8 0 -27 7
-41 14 -42 23 -91 42 -170 66 -45 13 -76 28 -79 38 -3 10 -17 27 -31 39 -14
13 -19 23 -12 23 7 0 10 3 7 6 -4 4 -20 1 -36 -6 -23 -9 -38 -10 -63 -1 -41
15 -109 61 -103 71 2 4 -21 10 -51 13 -31 3 -64 13 -73 21 -9 9 -41 23 -71 33
-30 10 -59 21 -65 25 -48 38 -158 98 -181 98 -7 0 -27 12 -44 26 -35 30 -98
64 -117 64 -8 0 -31 11 -53 25 -22 14 -44 25 -49 25 -11 0 -21 25 -21 56 0 20
5 24 28 24 16 0 51 -11 78 -25 27 -14 54 -25 60 -25 6 0 19 -9 29 -20 10 -11
21 -17 26 -14 13 7 57 -25 64 -47 4 -10 13 -19 21 -19 10 0 14 -8 12 -22 -3
-23 2 -25 35 -13 10 4 17 3 17 -4 0 -7 20 -11 49 -11 37 0 54 -5 75 -25 15
-14 39 -28 54 -32 15 -3 44 -17 64 -30 21 -12 46 -23 57 -23 10 0 38 -16 61
-35 23 -19 51 -35 61 -35 21 0 99 -46 99 -58 0 -4 10 -12 23 -17 12 -6 21 -16
19 -23 -1 -7 9 -12 26 -12 15 0 32 -4 38 -8 10 -9 84 -27 152 -37 23 -4 42
-10 42 -15 0 -11 58 -20 166 -26 85 -5 95 -4 145 22 86 43 120 74 146 133 13
30 33 66 44 79 10 14 19 35 19 47 0 12 16 41 36 64 20 23 38 56 40 72 2 17 22
51 44 78 22 26 40 55 40 65 0 10 9 31 20 46 11 16 17 35 14 44 -3 9 -1 22 5
30 6 7 20 48 31 89 11 42 31 93 45 113 17 25 25 50 25 81 0 42 22 101 42 114
5 3 18 37 28 75 10 38 28 89 41 114 24 45 32 90 17 90 -4 0 -8 -6 -8 -14 0
-21 -50 -70 -90 -88 -19 -9 -69 -24 -110 -33 -171 -38 -195 -46 -219 -68 -32
-28 -78 -44 -151 -52 -30 -4 -73 -12 -95 -20 -22 -7 -67 -16 -100 -20 -33 -4
-78 -13 -100 -20 -86 -29 -129 -29 -189 -1 -30 14 -65 26 -78 27 -13 0 -32 4
-43 8 -24 10 -95 -17 -95 -36 0 -8 -4 -12 -9 -9 -11 7 -66 -105 -75 -151 -9
-51 -166 -193 -200 -180 -9 4 -14 18 -14 36 1 16 -6 41 -15 55 -10 14 -17 32
-17 41 0 8 -4 15 -10 15 -5 0 -12 15 -15 33 -4 19 -17 45 -30 59 -12 13 -26
34 -29 46 -4 12 -26 35 -50 51 -23 16 -48 36 -54 44 -16 18 -106 63 -147 73
-16 4 -37 12 -45 18 -8 7 -33 21 -55 31 -22 11 -41 23 -43 28 -2 4 -10 7 -17
7 -17 0 -85 139 -85 174 0 13 -4 28 -10 31 -5 3 -10 16 -10 29 0 12 -9 41 -20
64 -11 22 -20 56 -20 74 0 31 -16 65 -47 96 -7 7 -13 17 -13 21 0 7 -27 41
-58 74 -19 20 -86 58 -129 72 -26 9 -82 34 -125 56 -43 21 -85 39 -92 39 -18
0 -91 84 -113 130 -9 19 -20 51 -25 70 -41 181 -50 220 -55 257 -3 23 -13 50
-22 60 -9 11 -21 28 -27 38 -6 11 -24 22 -40 26 -16 3 -47 17 -69 31 -22 15
-63 31 -90 36 -62 13 -175 63 -194 85 -7 10 -19 17 -25 17 -13 0 -56 53 -56
69 0 5 -8 16 -18 23 -11 8 -19 29 -21 57 -2 38 -23 94 -52 141 -5 8 -14 24
-20 35 -11 22 -98 85 -117 85 -6 0 -22 11 -35 24 -34 34 -90 47 -199 45 -116
-2 -160 6 -223 38 -66 34 -83 50 -106 98 -11 22 -37 53 -59 68 -23 16 -47 45
-56 65 -8 20 -27 49 -41 64 -14 15 -34 49 -43 77 -10 27 -38 70 -63 97 -25 27
-62 68 -83 91 -37 39 -199 133 -230 133 -8 0 -38 13 -67 29 -28 16 -70 32 -92
36 -22 3 -52 9 -67 11 l-28 6 0 -84 1 -83 44 -22 c25 -13 51 -23 58 -23 8 0
24 -9 37 -20 13 -11 31 -20 40 -20 10 0 28 -8 41 -18 13 -10 47 -31 74 -47 53
-30 125 -99 125 -120 0 -7 11 -24 24 -38 16 -17 22 -33 19 -50 -5 -26 -37 -37
-116 -37 -31 0 -45 -7 -68 -31 -16 -17 -29 -37 -29 -45 0 -7 -11 -34 -25 -60
-24 -45 -25 -54 -21 -171 3 -99 7 -127 21 -143 9 -10 14 -24 10 -30 -3 -6 1
-32 10 -59 15 -45 20 -51 77 -76 72 -32 144 -43 213 -33 74 11 88 15 111 35
11 10 29 23 40 29 13 8 20 24 21 55 11 192 21 246 36 188 3 -12 11 -19 19 -16
7 2 21 -2 30 -11 26 -22 165 -49 303 -57 83 -5 116 -12 170 -36 11 -5 38 -14
59 -21 29 -10 48 -26 73 -63 18 -27 43 -60 54 -72 17 -16 24 -40 30 -95 12
-115 27 -164 57 -185 54 -36 98 -57 147 -69 75 -19 149 -46 156 -57 4 -5 35
-17 70 -26 l64 -16 3 -40 c2 -22 8 -44 13 -50 5 -5 9 -20 9 -35 0 -14 9 -54
20 -89 11 -36 22 -84 26 -108 3 -24 10 -43 15 -43 5 0 12 -18 15 -40 4 -22 20
-57 36 -78 l30 -37 -27 -3 c-21 -3 -36 6 -66 38 -21 22 -39 45 -39 49 0 11
-77 64 -99 68 -9 2 -62 4 -118 5 l-101 0 -60 -45 c-77 -59 -92 -91 -86 -182 3
-38 9 -74 15 -80 5 -5 9 -19 9 -32 0 -13 6 -23 14 -23 8 0 17 -9 21 -19 5 -18
11 -17 84 20 80 41 157 57 207 45 31 -8 140 -113 153 -149 5 -13 7 -36 5 -53
-16 -104 -28 -151 -42 -167 -26 -29 -3 -39 59 -26 73 16 127 52 146 97 25 60
41 126 33 142 -9 17 -29 114 -37 179 -8 59 8 71 77 60 35 -5 62 -18 86 -38 19
-17 43 -31 54 -31 21 0 95 -47 124 -79 11 -12 25 -21 31 -21 14 0 25 -22 25
-48 0 -10 9 -35 21 -56 11 -21 25 -63 29 -94 5 -30 16 -62 23 -71 8 -9 17 -29
21 -46 4 -16 16 -53 28 -82 20 -50 24 -53 77 -69 31 -9 76 -26 100 -38 45 -22
91 -77 91 -109 0 -10 9 -21 20 -24 11 -3 20 -9 20 -13 0 -4 22 -10 50 -14 38
-5 54 -13 67 -33 10 -14 34 -43 54 -65 26 -28 40 -55 49 -96 13 -60 37 -101
58 -102 7 0 11 -4 7 -9 -3 -6 4 -19 16 -30 45 -41 13 -42 -66 -2 -44 23 -85
41 -91 41 -7 0 -14 3 -16 8 -3 7 -77 58 -113 78 -40 21 -91 35 -166 45 -61 7
-83 6 -111 -5 -44 -19 -54 -32 -61 -79 -8 -50 15 -99 58 -123 54 -31 166 -137
185 -174 10 -19 21 -50 25 -69 15 -70 45 -121 83 -140 53 -27 82 -58 82 -86 0
-13 5 -35 11 -49 9 -19 8 -35 -6 -75 -18 -56 -64 -102 -147 -149 -27 -15 -48
-32 -48 -38 0 -6 -24 -32 -52 -58 -29 -26 -57 -52 -63 -58 -5 -5 -25 -25 -43
-44 -18 -19 -36 -34 -41 -34 -5 0 -24 17 -43 39 -18 21 -55 53 -81 71 -75 50
-192 174 -210 222 -3 10 -11 18 -17 18 -5 0 -10 7 -10 16 0 8 -11 32 -25 52
-14 20 -25 42 -25 49 0 21 -64 63 -96 62 -70 -2 -134 4 -140 12 -3 5 -14 9
-24 9 -11 0 -33 8 -51 19 -17 10 -38 17 -47 14 -29 -7 -53 21 -63 72 -7 37
-20 59 -58 100 -35 37 -53 67 -65 107 -12 44 -25 63 -60 92 -24 20 -48 36 -53
36 -5 0 -27 13 -49 28 -27 19 -67 33 -129 46 -49 9 -109 26 -133 38 -51 24
-98 72 -107 108 -3 14 -15 32 -26 40 -12 10 -26 41 -35 79 -9 43 -23 72 -40
88 -39 36 -142 83 -183 83 -20 0 -73 6 -118 14 -169 27 -294 -38 -202 -107 30
-21 204 -57 285 -57 49 0 53 -2 111 -61 44 -44 63 -72 68 -98 4 -20 15 -49 25
-66 9 -16 20 -43 24 -59 6 -25 34 -72 61 -101 6 -6 31 -20 57 -30 26 -9 53
-24 59 -31 6 -8 27 -14 45 -14 19 0 53 -4 76 -10 24 -5 55 -12 70 -15 64 -12
181 -162 212 -270 30 -106 39 -141 42 -163 2 -13 10 -34 18 -48 9 -13 16 -31
16 -40 0 -13 6 -15 30 -11 18 4 30 2 30 -4 0 -6 -4 -8 -8 -5 -4 2 -14 1 -22
-4 -30 -19 41 -23 96 -5 42 13 68 15 107 9 29 -4 75 -8 103 -9 82 -3 121 -59
72 -105 -14 -13 -35 -20 -62 -20 -22 0 -65 -4 -95 -10 -60 -10 -126 -20 -321
-46 -106 -15 -176 -16 -475 -11 -192 4 -402 13 -465 20 -63 8 -176 15 -250 16
-74 1 -182 5 -240 10 -87 7 -108 6 -122 -6 -20 -17 -103 -20 -123 -3 -7 6 -31
10 -52 8 l-38 -3 -3 -104 c-3 -103 -3 -103 20 -98 137 34 382 39 1138 27 168
-3 334 -2 370 3 36 4 121 11 190 17 166 12 279 26 311 38 14 6 61 15 105 21
43 7 100 16 125 22 53 12 105 -4 149 -45 48 -46 156 -89 223 -90 60 -1 62 -2
65 -28 2 -15 -2 -36 -8 -48 l-11 -20 -1339 0 -1340 0 0 -25 0 -25 4140 0 4140
0 0 3460 0 3460 -4140 0 -4140 0 0 -1095z m3894 656 c3 -5 22 -12 41 -15 24
-5 39 -15 45 -29 5 -12 7 -92 6 -177 -2 -134 -6 -162 -25 -204 -12 -28 -19
-58 -15 -69 10 -30 12 -258 3 -291 -5 -16 -9 -59 -10 -95 -1 -90 -16 -128 -52
-141 -49 -17 -67 -13 -67 14 0 14 5 28 10 31 27 17 1 176 -41 250 -33 59 -35
65 -14 65 16 0 20 16 6 24 -5 3 -7 15 -4 25 3 11 -5 30 -18 45 -12 14 -38 71
-57 127 -31 91 -32 102 -19 123 9 12 13 34 10 49 -8 42 3 68 53 122 25 28 57
68 71 90 36 57 64 77 77 56z m461 -1841 c32 -11 72 -20 88 -20 19 0 55 -16 91
-40 34 -21 77 -46 96 -54 20 -8 44 -24 54 -35 11 -12 24 -21 30 -21 18 0 57
-53 54 -75 -2 -12 -18 -27 -43 -38 -62 -29 -85 -55 -85 -97 0 -47 -18 -56
-136 -65 -49 -4 -123 -17 -164 -30 -166 -51 -186 -57 -230 -65 -25 -5 -57 -12
-72 -16 -52 -12 -93 35 -134 154 -26 74 -54 112 -96 129 -69 28 -77 79 -22
142 20 22 41 41 46 41 6 0 28 15 48 34 35 32 44 35 126 41 49 4 107 13 129 20
59 20 153 18 220 -5z m-972 -222 c14 -10 36 -18 47 -18 29 0 78 -27 123 -66
20 -19 42 -34 47 -34 12 0 101 -66 118 -88 6 -9 12 -29 12 -44 0 -30 -27 -48
-72 -48 -12 0 -35 -10 -52 -23 -17 -13 -39 -26 -48 -30 -10 -4 -15 -13 -11
-25 7 -27 -8 -34 -91 -43 -184 -21 -213 -27 -271 -58 -27 -15 -70 -33 -95 -40
-48 -14 -175 -75 -201 -97 -8 -8 -25 -14 -36 -14 -11 0 -36 -11 -56 -24 -19
-13 -45 -27 -58 -31 -27 -9 -69 -38 -113 -78 -41 -38 -70 -49 -101 -37 -14 5
-25 13 -25 18 0 5 -15 17 -34 27 -33 18 -33 18 -69 -9 -21 -16 -45 -26 -59
-24 -20 3 -24 11 -31 63 -9 60 -2 99 28 170 7 17 19 49 26 72 6 23 20 51 31
62 10 11 18 23 18 26 0 13 65 86 92 103 16 10 37 32 46 49 25 45 95 132 108
132 5 1 41 17 80 36 38 19 79 35 92 35 12 0 41 9 64 21 54 28 142 38 318 36
120 -2 151 -5 173 -19z m1557 -236 c0 -11 -23 -33 -59 -56 -33 -21 -81 -61
-106 -89 -98 -109 -108 -117 -122 -106 -22 19 -15 56 18 83 17 14 34 26 39 26
4 0 34 27 66 61 33 33 73 69 89 80 39 25 75 25 75 1z m281 -32 c15 -8 19 -21
19 -58 0 -42 -5 -53 -40 -92 -22 -24 -40 -51 -40 -59 0 -21 -62 -110 -82 -116
-23 -8 -78 -66 -78 -82 0 -8 -19 -23 -42 -34 -24 -11 -54 -27 -68 -35 -14 -7
-33 -14 -42 -14 -9 0 -25 -10 -35 -22 -53 -65 -181 -128 -260 -128 -44 0 -44
28 1 77 18 21 39 49 45 61 7 13 27 30 44 37 31 13 87 66 87 82 0 15 61 73 76
73 7 0 14 5 14 11 0 15 78 114 131 168 26 25 54 58 64 74 10 15 24 27 31 27 8
0 31 9 51 20 41 22 93 26 124 10z m2499 -61 c0 -5 -15 -16 -32 -23 -18 -7 -42
-17 -53 -21 -11 -5 -33 -10 -50 -12 -16 -3 -34 -9 -39 -14 -6 -5 -17 -9 -26
-9 -9 0 -57 -13 -108 -30 -103 -33 -132 -37 -132 -16 0 13 72 46 101 46 8 0
24 7 35 15 10 8 33 15 51 15 17 0 35 5 39 11 4 7 24 9 50 6 26 -2 45 0 47 6 3
11 68 34 100 36 9 1 17 -4 17 -10z m-3405 -125 c29 -44 14 -69 -57 -93 -35
-12 -76 -27 -93 -32 -56 -20 -72 -21 -88 -4 -10 9 -17 20 -17 25 0 19 63 70
122 99 78 38 110 40 133 5z m2705 -84 c0 -5 -9 -10 -19 -10 -10 0 -21 -6 -24
-13 -3 -7 -65 -30 -138 -51 -74 -21 -142 -42 -151 -47 -10 -5 -25 -9 -33 -9
-8 0 -15 -4 -15 -8 0 -5 -26 -13 -57 -19 -32 -6 -67 -14 -78 -17 -11 -3 -27
-2 -35 4 -13 9 -13 11 0 20 8 6 26 13 40 16 14 3 33 10 43 15 30 16 226 79
246 79 11 0 23 5 26 10 4 6 14 8 23 6 10 -3 29 0 44 8 14 8 43 14 63 14 20 0
39 3 42 6 10 9 23 7 23 -4z m-2613 -144 c-11 -67 -126 -187 -169 -178 -5 1 -8
-3 -8 -8 0 -5 -25 -10 -55 -10 -47 0 -57 4 -70 24 -21 32 -12 66 29 105 25 24
53 37 131 56 55 14 104 30 109 35 23 23 39 11 33 -24z m1717 -1493 c14 -15 23
-30 20 -34 -2 -4 5 -11 17 -14 37 -12 99 -75 99 -101 0 -29 -11 -32 -157 -42
-121 -8 -143 -2 -143 37 0 11 10 31 23 43 24 24 40 49 57 88 26 58 47 63 84
23z"/>
<path d="M1295 4489 c-68 -16 -93 -30 -99 -55 -6 -24 1 -71 14 -89 4 -5 15
-46 24 -90 27 -121 45 -164 88 -207 35 -35 44 -39 72 -33 17 4 36 7 41 6 6 0
44 -3 85 -7 56 -4 80 -2 93 8 24 18 29 75 15 163 -12 72 -15 76 -93 140 -65
53 -75 65 -75 88 0 32 -50 77 -91 82 -19 2 -52 0 -74 -6z"/>
<path d="M7715 3891 c-24 -21 -228 -83 -272 -82 -16 1 -23 -5 -23 -18 0 -19
-29 -51 -47 -51 -14 0 -43 -44 -43 -65 0 -9 8 -19 18 -22 9 -4 21 -12 25 -20
10 -17 32 -17 87 2 25 8 80 26 124 40 43 15 93 36 110 47 64 42 97 129 62 164
-17 16 -28 18 -41 5z"/>
<path d="M1868 3719 c-66 -33 -75 -133 -18 -199 11 -13 20 -33 20 -45 0 -32
17 -43 85 -50 73 -8 77 -5 98 85 8 36 16 70 17 75 9 30 -38 116 -74 136 -30
18 -92 17 -128 -2z"/>
<path d="M6980 3327 c-38 -12 -139 -83 -150 -107 -33 -68 -49 -124 -39 -137
19 -22 61 -15 92 15 20 19 39 27 65 27 30 0 40 6 60 35 15 23 31 35 47 35 13
1 27 3 30 7 10 9 -6 37 -26 43 -14 5 -17 12 -12 36 3 17 0 35 -7 44 -14 17
-12 17 -60 2z"/>
<path d="M2744 3295 c-7 -17 24 -105 41 -120 7 -5 14 -38 17 -72 7 -73 46
-136 82 -131 35 5 23 70 -25 134 -34 44 -39 56 -29 73 15 29 3 66 -33 101 -35
34 -45 37 -53 15z"/>
<path d="M3272 2878 c-25 -13 -37 -46 -28 -82 13 -50 58 -73 122 -62 43 9 59
39 50 91 -6 29 -14 39 -41 51 -40 16 -71 17 -103 2z"/>
<path d="M3100 2647 c-34 -17 -39 -66 -9 -106 33 -45 62 -47 114 -10 50 36 55
45 48 83 -9 44 -95 62 -153 33z"/>
<path d="M705 2424 c-57 -14 -78 -29 -96 -71 -10 -24 -16 -49 -14 -56 2 -6 9
-55 14 -108 5 -53 15 -105 21 -116 7 -11 43 -28 89 -42 67 -21 82 -22 131 -12
37 7 64 20 84 40 27 27 29 36 28 88 -1 32 -4 69 -7 83 -3 14 -8 40 -11 59 -11
55 -41 98 -82 114 -42 16 -127 28 -157 21z"/>
<path d="M3382 2032 c-32 -28 -49 -120 -32 -172 10 -31 19 -40 44 -46 71 -16
165 7 185 45 6 10 8 34 5 53 -4 19 -1 44 5 55 8 16 6 24 -13 42 -12 11 -30 21
-40 21 -9 0 -15 3 -12 8 2 4 -24 9 -58 10 -49 3 -66 -1 -84 -16z"/>
<path d="M2036 1389 c-38 -10 -93 -49 -105 -74 -6 -11 -12 -61 -13 -110 -3
-85 -1 -92 23 -118 14 -15 38 -53 54 -83 34 -65 53 -78 116 -75 26 1 50 -3 54
-9 10 -17 58 -11 105 13 41 21 44 26 61 92 19 74 25 200 10 224 -6 9 -19 12
-37 8 -25 -4 -40 5 -109 68 -82 75 -98 81 -159 64z"/>
<path d="M215 590 c-3 -5 -33 -10 -65 -10 -61 0 -83 -13 -58 -33 8 -7 25 -27
37 -44 12 -18 29 -33 37 -33 8 0 26 -7 40 -16 23 -15 27 -15 57 -1 18 9 44 19
60 22 18 4 27 12 27 25 0 11 -6 20 -12 20 -7 0 4 12 25 27 35 25 36 27 18 40
-16 10 -25 11 -46 1 -19 -9 -28 -9 -37 0 -15 15 -74 16 -83 2z"/>
<path d="M1495 530 c-11 -5 -32 -9 -47 -9 -18 -1 -28 -6 -28 -16 0 -22 -49
-43 -60 -26 -4 8 -12 11 -18 7 -12 -7 -62 13 -62 26 0 4 -18 8 -40 8 -22 0
-40 -4 -40 -9 0 -5 -15 -12 -32 -15 l-33 -7 30 -16 c17 -8 37 -22 46 -29 10
-9 29 -12 55 -8 21 3 50 7 64 9 14 1 33 6 42 10 9 3 25 2 36 -4 28 -15 140
-11 153 6 7 7 18 13 25 13 8 0 14 4 14 9 0 5 2 16 5 23 4 10 -6 18 -33 26 -45
14 -50 14 -77 2z"/>
</g>
</svg>
