<?xml version="1.0" standalone="no"?>
<!DOCTYPE svg PUBLIC "-//W3C//DTD SVG 20010904//EN"
 "http://www.w3.org/TR/2001/REC-SVG-20010904/DTD/svg10.dtd">
<svg version="1.0" xmlns="http://www.w3.org/2000/svg"
 width="512.000000pt" height="512.000000pt" viewBox="0 0 512.000000 512.000000"
 preserveAspectRatio="xMidYMid meet">
<metadata>
Created by potrace 1.16, written by Peter Selinger 2001-2019
</metadata>
<g transform="translate(0.000000,512.000000) scale(0.100000,-0.100000)"
fill="#000000" stroke="none">
<path d="M411 3104 c-184 -49 -338 -203 -395 -393 -21 -72 -21 -230 0 -302 57
-192 212 -345 400 -394 75 -20 210 -19 288 1 149 38 294 157 359 294 107 226
66 474 -107 645 -117 116 -238 166 -402 164 -49 0 -113 -7 -143 -15z"/>
<path d="M2381 3104 c-127 -34 -256 -128 -327 -241 -114 -177 -114 -429 0
-606 73 -115 201 -208 332 -242 75 -20 210 -19 288 1 149 38 294 157 359 294
107 226 66 474 -107 645 -117 116 -238 166 -402 164 -49 0 -113 -7 -143 -15z"/>
<path d="M4405 3101 c-146 -42 -284 -157 -348 -291 -107 -226 -66 -474 107
-645 116 -115 237 -165 398 -165 159 0 292 56 401 168 109 113 157 233 157
392 0 60 -6 117 -16 151 -57 192 -212 345 -400 394 -77 20 -222 18 -299 -4z"/>
</g>
</svg>
